# xmcd
#
# Track frame offsets:
#  150
#  33580
#  60979
#  84282
#  114240
#  157592
#  210376
#  239746
#  271029
#
# Disc length: 3993 seconds
#
# Revision: 0
# Processed by: cddbd v1.5.1PL0 Copyright (c) Steve Scherf et al.
# Submitted via: Collectorz.com Music Collector 6.9
#
DISCID=620f9709
DTITLE=mark knopfler - Zenith, Lille, France, Jne 5th 2005 - Disc 1
DYEAR=2005
DGENRE=
TTITLE0=Why Aye Man
TTITLE1=Walk Of Life
TTITLE2=What It Is
TTITLE3=Sailing To Philadelphia
TTITLE4=Romeo And Juliet
TTITLE5=Sultans Of Swing
TTITLE6=Done With Bonaparte
TTITLE7=Donegan's Gone
TTITLE8=Rudiger
EXTD=
EXTT0=
EXTT1=
EXTT2=
EXTT3=
EXTT4=
EXTT5=
EXTT6=
EXTT7=
EXTT8=
PLAYORDER=
